<svg width="173" height="32" viewBox="0 0 173 32" fill="none" xmlns="http://www.w3.org/2000/svg"><mask id="mask0_104_380" style="mask-type:luminance" maskUnits="userSpaceOnUse" x="0" y="0" width="32" height="32"><path d="M32 0H0V32H32V0Z" fill="white"/></mask><g mask="url(#mask0_104_380)"><path d="M17.5842 5.46327L18.8515 4.21449C21.2753 1.82729 25.285 1.84104 27.7228 4.21449C28.6465 5.11583 29.2476 6.22997 29.4654 7.49254C29.6831 8.75512 29.4015 10.0877 28.8317 11.2389C28.5584 11.7888 28.5714 12.352 28.6733 12.956C28.7753 13.5599 29.026 14.2399 29.4654 14.673C30.2732 13.8756 30.9301 12.9045 31.3663 11.8633C31.8026 10.822 32.0016 9.71166 32 8.58522C31.9983 7.4588 31.8057 6.3472 31.3663 5.30717C30.927 4.26713 30.2754 3.29261 29.4654 2.49742C26.0566 -0.840942 20.5082 -0.850321 17.1089 2.49742L5.38615 14.2047L4.43565 13.1121C1.97072 10.6844 1.92724 6.75513 4.43565 4.37059C5.36416 3.49066 6.48829 2.99922 7.76239 2.80961C9.03648 2.62001 10.4133 2.70744 11.5644 3.2779C12.0897 3.54306 12.5652 3.67909 13.1485 3.5901C13.7319 3.50111 14.3134 3.21887 14.7327 2.80961V2.80961C14.742 2.80048 14.7276 2.82159 14.7327 2.80961C14.7377 2.79765 14.8911 2.82257 14.8911 2.80961C14.8911 2.79665 14.7377 2.66547 14.7327 2.65351C14.7276 2.64156 14.742 2.66266 14.7327 2.65351C13.1134 1.09877 10.9743 0.319112 8.71288 0.312051C6.45148 0.304992 4.32232 1.10892 2.69308 2.65351C-0.816485 5.99031 -0.756331 11.5879 2.69308 14.9852L14.4159 26.5364L13.1485 27.7852C10.7247 30.1724 6.71487 30.1587 4.27724 27.7852C3.35353 26.8839 2.75243 25.7697 2.53466 24.5072C2.31691 23.2446 2.59864 21.9121 3.16833 20.7608C3.44164 20.2109 3.42868 19.6476 3.32674 19.0438C3.22479 18.4398 2.97393 17.7598 2.53466 17.3267C1.72688 18.1242 1.06999 19.0952 0.633673 20.1364C0.197358 21.1778 -0.00161143 22.2879 9.82527e-06 23.4145C0.00163108 24.5409 0.194361 25.6526 0.633673 26.6925C1.07298 27.7326 1.72459 28.7071 2.53466 29.5023C5.94328 32.8408 11.4918 32.8502 14.8911 29.5023L26.6139 17.795L27.7228 18.7316C30.1466 21.1188 30.1326 25.0722 27.7228 27.473C26.8077 28.3829 25.678 28.9755 24.396 29.1901C23.1141 29.4046 21.763 29.283 20.5941 28.7218C20.0356 28.4525 19.4649 28.3089 18.8515 28.4096C18.2381 28.5101 17.5487 28.7571 17.1089 29.1901C17.9187 29.9857 18.9032 30.6336 19.9604 31.0633C21.0177 31.493 22.1433 31.6892 23.2871 31.6877C24.4308 31.6859 25.558 31.4959 26.6139 31.0633C27.6699 30.6306 28.658 29.9879 29.4654 29.1901C32.8551 25.833 32.8645 20.3622 29.4654 17.0145L17.5842 5.46327ZM16.1584 24.8194L7.12872 15.9218L15.8416 7.18034L24.8713 16.0779L16.1584 24.8194Z" fill="#FF3E00"/></g><path d="M50.66 24H41.68V10.4H44.26V21.98H50.26L50.66 24ZM56.5794 24.24C55.046 24.24 53.846 23.78 52.9794 22.86C52.126 21.9267 51.6994 20.68 51.6994 19.12C51.6994 17.5733 52.146 16.34 53.0394 15.42C53.946 14.5 55.1794 14.04 56.7394 14.04C58.3527 14.04 59.5994 14.52 60.4794 15.48C61.3727 16.4267 61.8194 17.6733 61.8194 19.22C61.8194 20.7667 61.3394 21.9933 60.3794 22.9C59.4194 23.7933 58.1527 24.24 56.5794 24.24ZM59.1394 19.22C59.1394 18.3 58.9327 17.58 58.5194 17.06C58.1194 16.5267 57.546 16.26 56.7994 16.26C56.0394 16.26 55.446 16.4933 55.0194 16.96C54.5927 17.4267 54.3794 18.14 54.3794 19.1C54.3794 20.06 54.5594 20.7867 54.9194 21.28C55.2927 21.7733 55.8594 22.02 56.6194 22.02C57.366 22.02 57.9727 21.8 58.4394 21.36C58.906 20.9067 59.1394 20.1933 59.1394 19.22ZM68.5163 16.26C67.7829 16.26 67.2096 16.54 66.7963 17.1C66.3829 17.6467 66.1763 18.3333 66.1763 19.16C66.1763 20 66.3829 20.6867 66.7963 21.22C67.2096 21.7533 67.7829 22.02 68.5163 22.02C68.9696 22.02 69.3763 21.9667 69.7363 21.86C70.1096 21.74 70.5296 21.5733 70.9963 21.36L71.7363 23.24C71.2829 23.5867 70.7296 23.84 70.0763 24C69.4363 24.16 68.9096 24.24 68.4963 24.24C66.9229 24.24 65.6963 23.78 64.8163 22.86C63.9363 21.94 63.4963 20.7067 63.4963 19.16C63.4963 17.6133 63.9363 16.3733 64.8163 15.44C65.6963 14.5067 66.9229 14.04 68.4963 14.04C68.9096 14.04 69.4296 14.1267 70.0563 14.3C70.6963 14.4733 71.2563 14.7267 71.7363 15.06L70.9963 16.92C70.5296 16.7067 70.1096 16.5467 69.7363 16.44C69.3763 16.32 68.9696 16.26 68.5163 16.26ZM75.5628 21.1C75.5628 21.38 75.6761 21.6333 75.9028 21.86C76.1295 22.0733 76.4295 22.18 76.8028 22.18C77.1628 22.18 77.5228 22.1 77.8828 21.94C78.2561 21.78 78.6095 21.54 78.9428 21.22V19.74H76.9828C76.5295 19.74 76.1761 19.88 75.9228 20.16C75.6828 20.44 75.5628 20.7533 75.5628 21.1ZM76.8428 24.24C75.6561 24.24 74.7761 23.9533 74.2028 23.38C73.6295 22.7933 73.3428 22.0333 73.3428 21.1C73.3428 20.1 73.6828 19.3333 74.3628 18.8C75.0428 18.2667 75.9295 18 77.0228 18H78.9228C78.9095 17.5067 78.7628 17.1267 78.4828 16.86C78.2161 16.58 77.8428 16.44 77.3628 16.44C76.9095 16.44 76.4161 16.5067 75.8828 16.64C75.3495 16.76 74.9028 16.9067 74.5428 17.08L73.8428 14.92C74.2161 14.6667 74.7828 14.46 75.5428 14.3C76.3161 14.1267 76.9095 14.04 77.3228 14.04C78.4828 14.04 79.4761 14.38 80.3028 15.06C81.1295 15.7267 81.5428 16.58 81.5428 17.62V24H80.2028L79.5628 23.18C79.2028 23.46 78.7761 23.7067 78.2828 23.92C77.8028 24.1333 77.3228 24.24 76.8428 24.24ZM86.6553 9.88V24H84.0753V10.1L86.6553 9.88ZM94.4144 24V10.4H98.6744C100.154 10.4 101.421 10.74 102.474 11.42C103.528 12.0867 104.054 13.2 104.054 14.76C104.054 16.3067 103.488 17.4467 102.354 18.18C101.221 18.9 99.9344 19.26 98.4944 19.26H96.9944V24H94.4144ZM98.5944 12.56H96.9944V17.12H98.6344C99.4077 17.12 100.034 16.9467 100.514 16.6C100.994 16.24 101.261 15.68 101.314 14.92C101.314 14.04 101.074 13.4267 100.594 13.08C100.114 12.7333 99.4477 12.56 98.5944 12.56ZM110.603 24.24C109.069 24.24 107.869 23.78 107.003 22.86C106.149 21.9267 105.723 20.68 105.723 19.12C105.723 17.5733 106.169 16.34 107.063 15.42C107.969 14.5 109.203 14.04 110.763 14.04C112.376 14.04 113.623 14.52 114.503 15.48C115.396 16.4267 115.843 17.6733 115.843 19.22C115.843 20.7667 115.363 21.9933 114.403 22.9C113.443 23.7933 112.176 24.24 110.603 24.24ZM113.163 19.22C113.163 18.3 112.956 17.58 112.543 17.06C112.143 16.5267 111.569 16.26 110.823 16.26C110.063 16.26 109.469 16.4933 109.043 16.96C108.616 17.4267 108.403 18.14 108.403 19.1C108.403 20.06 108.583 20.7867 108.943 21.28C109.316 21.7733 109.883 22.02 110.643 22.02C111.389 22.02 111.996 21.8 112.463 21.36C112.929 20.9067 113.163 20.1933 113.163 19.22ZM123.24 14.3L123.76 16.38C123.32 16.38 122.806 16.5067 122.22 16.76C121.646 17.0133 121.08 17.3867 120.52 17.88V24H117.92V14.3H119.28L120.14 15.72C120.54 15.3733 121.026 15.0533 121.6 14.76C122.173 14.4533 122.72 14.3 123.24 14.3ZM131.088 23.8C130.874 23.9733 130.568 24.1133 130.168 24.22C129.781 24.34 129.434 24.4 129.128 24.4C127.928 24.4 126.981 24.1 126.288 23.5C125.608 22.8867 125.268 22.02 125.268 20.9V16.32H123.968V14.32H125.268V12.02L127.848 11.56V14.32H129.608L130.408 16.32H127.848V20.44C127.848 20.9467 127.968 21.3667 128.208 21.7C128.448 22.02 128.801 22.18 129.268 22.18C129.441 22.18 129.614 22.16 129.788 22.12C129.961 22.08 130.141 22.0133 130.328 21.92L131.088 23.8ZM132.909 13.58C132.909 12.46 133.236 11.58 133.889 10.94C134.556 10.2867 135.489 9.96 136.689 9.96C136.996 9.96 137.342 10.02 137.729 10.14C138.116 10.26 138.416 10.4067 138.629 10.58L137.889 12.46C137.689 12.38 137.496 12.32 137.309 12.28C137.136 12.2267 136.969 12.2 136.809 12.2C136.356 12.2 136.022 12.3667 135.809 12.7C135.609 13.02 135.509 13.4333 135.509 13.94V14.5H137.349L138.169 16.52H135.509V24H132.909V16.52H131.409V14.5H132.909V13.58ZM144.45 24.24C142.917 24.24 141.717 23.78 140.85 22.86C139.997 21.9267 139.57 20.68 139.57 19.12C139.57 17.5733 140.017 16.34 140.91 15.42C141.817 14.5 143.05 14.04 144.61 14.04C146.224 14.04 147.47 14.52 148.35 15.48C149.244 16.4267 149.69 17.6733 149.69 19.22C149.69 20.7667 149.21 21.9933 148.25 22.9C147.29 23.7933 146.024 24.24 144.45 24.24ZM147.01 19.22C147.01 18.3 146.804 17.58 146.39 17.06C145.99 16.5267 145.417 16.26 144.67 16.26C143.91 16.26 143.317 16.4933 142.89 16.96C142.464 17.4267 142.25 18.14 142.25 19.1C142.25 20.06 142.43 20.7867 142.79 21.28C143.164 21.7733 143.73 22.02 144.49 22.02C145.237 22.02 145.844 21.8 146.31 21.36C146.777 20.9067 147.01 20.1933 147.01 19.22ZM154.487 9.88V24H151.907V10.1L154.487 9.88ZM158.38 10C158.793 10 159.14 10.14 159.42 10.42C159.713 10.7 159.86 11.0467 159.86 11.46C159.86 11.8733 159.713 12.22 159.42 12.5C159.14 12.78 158.793 12.92 158.38 12.92C157.98 12.92 157.64 12.78 157.36 12.5C157.08 12.22 156.94 11.8733 156.94 11.46C156.94 11.0467 157.08 10.7 157.36 10.42C157.64 10.14 157.98 10 158.38 10ZM159.68 14.3V24H157.08V14.3H159.68ZM166.677 24.24C165.144 24.24 163.944 23.78 163.077 22.86C162.224 21.9267 161.797 20.68 161.797 19.12C161.797 17.5733 162.244 16.34 163.137 15.42C164.044 14.5 165.277 14.04 166.837 14.04C168.45 14.04 169.697 14.52 170.577 15.48C171.47 16.4267 171.917 17.6733 171.917 19.22C171.917 20.7667 171.437 21.9933 170.477 22.9C169.517 23.7933 168.25 24.24 166.677 24.24ZM169.237 19.22C169.237 18.3 169.03 17.58 168.617 17.06C168.217 16.5267 167.644 16.26 166.897 16.26C166.137 16.26 165.544 16.4933 165.117 16.96C164.69 17.4267 164.477 18.14 164.477 19.1C164.477 20.06 164.657 20.7867 165.017 21.28C165.39 21.7733 165.957 22.02 166.717 22.02C167.464 22.02 168.07 21.8 168.537 21.36C169.004 20.9067 169.237 20.1933 169.237 19.22Z" fill="#2F4858"/></svg>