<svg width="32" height="32" viewBox="0 0 32 32" fill="none" xmlns="http://www.w3.org/2000/svg"><mask id="mask0_104_107" style="mask-type:luminance" maskUnits="userSpaceOnUse" x="0" y="0" width="32" height="32"><path d="M32 0H0V32H32V0Z" fill="white"/></mask><g mask="url(#mask0_104_107)"><path d="M17.5842 5.46325L18.8515 4.21447C21.2753 1.82727 25.285 1.84103 27.7228 4.21447C28.6465 5.11582 29.2476 6.22996 29.4654 7.49252C29.6831 8.7551 29.4015 10.0877 28.8317 11.2389C28.5584 11.7888 28.5714 12.352 28.6733 12.9559C28.7753 13.5599 29.026 14.2398 29.4654 14.673C30.2732 13.8756 30.9301 12.9045 31.3663 11.8633C31.8026 10.822 32.0016 9.71164 32 8.5852C31.9983 7.45879 31.8057 6.34718 31.3663 5.30716C30.927 4.26712 30.2754 3.29259 29.4654 2.4974C26.0566 -0.840959 20.5082 -0.850338 17.1089 2.4974L5.38615 14.2047L4.43565 13.112C1.97072 10.6843 1.92724 6.75512 4.43565 4.37057C5.36416 3.49064 6.48829 2.9992 7.76239 2.8096C9.03648 2.61999 10.4133 2.70743 11.5644 3.27789C12.0897 3.54304 12.5652 3.67907 13.1485 3.59008C13.7319 3.50109 14.3134 3.21885 14.7327 2.8096C14.7276 2.82157 14.742 2.80047 14.7327 2.8096C14.7377 2.79764 14.8911 2.82255 14.8911 2.8096C14.8911 2.79664 14.7377 2.66546 14.7327 2.6535C14.7276 2.64154 14.742 2.66264 14.7327 2.6535C13.1134 1.09876 10.9743 0.319095 8.71288 0.312034C6.45148 0.304975 4.32232 1.1089 2.69308 2.6535C-0.816485 5.9903 -0.756331 11.5879 2.69308 14.9852L14.4159 26.5364L13.1485 27.7852C10.7247 30.1724 6.71487 30.1587 4.27724 27.7852C3.35353 26.8839 2.75243 25.7697 2.53466 24.5072C2.31691 23.2446 2.59864 21.9121 3.16833 20.7608C3.44164 20.2109 3.42868 19.6476 3.32674 19.0437C3.22479 18.4398 2.97393 17.7598 2.53466 17.3267C1.72688 18.1242 1.06999 19.0952 0.633673 20.1364C0.197358 21.1778 -0.00161143 22.2879 9.82527e-06 23.4145C0.00163108 24.5409 0.194361 25.6526 0.633673 26.6925C1.07298 27.7326 1.72459 28.7071 2.53466 29.5023C5.94328 32.8408 11.4918 32.8502 14.8911 29.5023L26.6139 17.795L27.7228 18.7315C30.1466 21.1187 30.1326 25.0722 27.7228 27.473C26.8077 28.3829 25.678 28.9755 24.396 29.1901C23.1141 29.4045 21.763 29.283 20.5941 28.7218C20.0356 28.4525 19.4649 28.3089 18.8515 28.4096C18.2381 28.5101 17.5487 28.7571 17.1089 29.1901C17.9187 29.9857 18.9032 30.6336 19.9604 31.0633C21.0177 31.493 22.1433 31.6892 23.2871 31.6876C24.4308 31.6859 25.558 31.4959 26.6139 31.0633C27.6699 30.6306 28.658 29.9879 29.4654 29.1901C32.8551 25.833 32.8645 20.3622 29.4654 17.0145L17.5842 5.46325ZM16.1584 24.8194L7.12872 15.9218L15.8416 7.18033L24.8713 16.0779L16.1584 24.8194Z" fill="var(--subtle-2)"/></g></svg>